<?xml version="1.0" encoding="iso-8859-1"?>
<!-- Generator: Adobe Illustrator 16.0.0, SVG Export Plug-In . SVG Version: 6.00 Build 0)  -->
<!DOCTYPE svg PUBLIC "-//W3C//DTD SVG 1.1//EN" "http://www.w3.org/Graphics/SVG/1.1/DTD/svg11.dtd">
<svg version="1.1" id="Capa_1" xmlns="http://www.w3.org/2000/svg" xmlns:xlink="http://www.w3.org/1999/xlink" x="0px" y="0px"
	 width="65px" height="65px" viewBox="0 0 65 65" style="enable-background:new 0 0 65 65;" xml:space="preserve">
<g>
	<g>
		<g>
			<path d="M51.436,65h-0.334C47.495,65,44,61.357,44,57.729v-2.996c0-1.371-0.495-1.731-1.895-1.731h-0.334
				C40.797,53.001,39,53.3,39,54.732v2.996C39,61.202,36.473,65,32.776,65h-0.333C28.619,65,26,61.13,26,57.729v-2.996
				c0-1.635-1.799-1.731-2.553-1.731h-0.333c-1.274,0-3.114,0.496-3.114,1.731v2.996C20,61.215,17.908,65,14.118,65h-0.333
				C10.273,65,7,61.425,7,57.729V24.012C7,10.728,18.061,0,31.712,0h1.796C46.986,0,58,10.728,58,24.012v33.716
				C58,61.123,55.166,65,51.436,65z M41.771,49h0.334C45.712,49,48,51.146,48,54.73v2.998c0,1.4,1.718,3.271,3.102,3.271h0.334
				c1.225,0,2.564-1.722,2.564-3.271V24.012C54,12.745,44.973,4,33.508,4h-1.796C20.266,4,11,12.933,11,24.012v33.716
				C11,59.191,12.488,61,13.785,61h0.333C15.315,61,16,59.066,16,57.729v-2.996c0-3.774,3.643-5.731,7.114-5.731h0.333
				c3.831,0,6.553,2.31,6.553,5.731v2.996C30,59.28,31.233,61,32.443,61h0.333C34.003,61,35,59.204,35,57.729v-2.996
				C35,51.364,37.82,49,41.771,49z"/>
		</g>
		<g>
			<path d="M32.954,8c-0.012,0-0.023,0-0.035,0c-0.213,0-0.427-0.046-0.642-0.046c-0.553,0-1-0.464-1-1.017s0.447-1.009,1-1.009
				c0.238,0,0.476-0.001,0.711,0.008c0.552,0.019,0.983,0.515,0.965,1.067C33.934,7.543,33.49,8,32.954,8z"/>
		</g>
		<g>
			<path d="M50,36.92c-0.553,0-1-0.447-1-1V23.85c0-7.289-4.915-13.461-12.195-15.357c-0.535-0.14-0.867-0.686-0.729-1.22
				c0.141-0.534,0.699-0.854,1.236-0.716C45.488,8.687,51,15.636,51,23.85v12.07C51,36.473,50.552,36.92,50,36.92z"/>
		</g>
		<g>
			<path d="M20.294,31.754c-3.221,0-5.84-2.62-5.84-5.84c0-3.22,2.619-5.84,5.84-5.84c3.22,0,5.84,2.62,5.84,5.84
				C26.134,29.134,23.514,31.754,20.294,31.754z M20.294,22.074c-2.117,0-3.84,1.723-3.84,3.84s1.723,3.84,3.84,3.84
				s3.84-1.723,3.84-3.84S22.411,22.074,20.294,22.074z"/>
		</g>
		<g>
			<path d="M35.029,31.754c-3.221,0-5.84-2.62-5.84-5.84c0-3.22,2.619-5.84,5.84-5.84c3.22,0,5.84,2.62,5.84,5.84
				C40.869,29.134,38.249,31.754,35.029,31.754z M35.029,22.074c-2.117,0-3.84,1.723-3.84,3.84s1.723,3.84,3.84,3.84
				s3.84-1.723,3.84-3.84S37.146,22.074,35.029,22.074z"/>
		</g>
	</g>
</g>
<g>
</g>
<g>
</g>
<g>
</g>
<g>
</g>
<g>
</g>
<g>
</g>
<g>
</g>
<g>
</g>
<g>
</g>
<g>
</g>
<g>
</g>
<g>
</g>
<g>
</g>
<g>
</g>
<g>
</g>
</svg>
